<mxfile host="app.diagrams.net" agent="Mozilla/5.0 (X11; Linux x86_64) AppleWebKit/537.36 (KHTML, like Gecko) Chrome/131.0.0.0 Safari/537.36" version="26.0.2">
  <diagram name="1 oldal" id="kSzb5PiayyHW689BAmss">
    <mxGraphModel dx="1000" dy="573" grid="1" gridSize="10" guides="1" tooltips="1" connect="1" arrows="1" fold="1" page="1" pageScale="1" pageWidth="827" pageHeight="1169" math="0" shadow="0">
      <root>
        <mxCell id="0" />
        <mxCell id="1" parent="0" />
        <mxCell id="cP44W9lzAS7AUE2EkKCi-1" value="" style="rounded=1;whiteSpace=wrap;html=1;fillColor=#f5f5f5;fontColor=#333333;strokeColor=#666666;" vertex="1" parent="1">
          <mxGeometry x="50" y="70" width="650" height="390" as="geometry" />
        </mxCell>
        <mxCell id="cP44W9lzAS7AUE2EkKCi-34" value="" style="rounded=1;whiteSpace=wrap;html=1;fillColor=#f5f5f5;fontColor=#333333;strokeColor=#666666;" vertex="1" parent="1">
          <mxGeometry x="221" y="225" width="439" height="215" as="geometry" />
        </mxCell>
        <mxCell id="cP44W9lzAS7AUE2EkKCi-32" value="" style="rounded=1;whiteSpace=wrap;html=1;fillColor=#f5f5f5;fontColor=#333333;strokeColor=#666666;" vertex="1" parent="1">
          <mxGeometry x="220" y="100" width="440" height="110" as="geometry" />
        </mxCell>
        <mxCell id="cP44W9lzAS7AUE2EkKCi-2" value="Podman" style="text;html=1;align=center;verticalAlign=middle;whiteSpace=wrap;rounded=0;" vertex="1" parent="1">
          <mxGeometry x="50" y="70" width="650" height="30" as="geometry" />
        </mxCell>
        <mxCell id="cP44W9lzAS7AUE2EkKCi-25" style="rounded=0;orthogonalLoop=1;jettySize=auto;html=1;entryX=0;entryY=0.5;entryDx=0;entryDy=0;exitX=0.883;exitY=0.017;exitDx=0;exitDy=0;exitPerimeter=0;" edge="1" parent="1" source="cP44W9lzAS7AUE2EkKCi-3" target="cP44W9lzAS7AUE2EkKCi-11">
          <mxGeometry relative="1" as="geometry" />
        </mxCell>
        <mxCell id="cP44W9lzAS7AUE2EkKCi-26" style="edgeStyle=orthogonalEdgeStyle;rounded=0;orthogonalLoop=1;jettySize=auto;html=1;" edge="1" parent="1" source="cP44W9lzAS7AUE2EkKCi-3" target="cP44W9lzAS7AUE2EkKCi-19">
          <mxGeometry relative="1" as="geometry" />
        </mxCell>
        <mxCell id="cP44W9lzAS7AUE2EkKCi-27" style="rounded=0;orthogonalLoop=1;jettySize=auto;html=1;entryX=0;entryY=0.5;entryDx=0;entryDy=0;" edge="1" parent="1" source="cP44W9lzAS7AUE2EkKCi-3" target="cP44W9lzAS7AUE2EkKCi-21">
          <mxGeometry relative="1" as="geometry" />
        </mxCell>
        <mxCell id="cP44W9lzAS7AUE2EkKCi-3" value="Sample module" style="rounded=1;whiteSpace=wrap;html=1;fillColor=#dae8fc;strokeColor=#6c8ebf;" vertex="1" parent="1">
          <mxGeometry x="70" y="260" width="120" height="60" as="geometry" />
        </mxCell>
        <mxCell id="cP44W9lzAS7AUE2EkKCi-28" style="edgeStyle=orthogonalEdgeStyle;rounded=0;orthogonalLoop=1;jettySize=auto;html=1;" edge="1" parent="1" source="cP44W9lzAS7AUE2EkKCi-11" target="cP44W9lzAS7AUE2EkKCi-13">
          <mxGeometry relative="1" as="geometry" />
        </mxCell>
        <mxCell id="cP44W9lzAS7AUE2EkKCi-11" value="Logstash" style="rounded=1;whiteSpace=wrap;html=1;fillColor=#ffe6cc;strokeColor=#d79b00;" vertex="1" parent="1">
          <mxGeometry x="230" y="140" width="120" height="60" as="geometry" />
        </mxCell>
        <mxCell id="cP44W9lzAS7AUE2EkKCi-29" style="edgeStyle=orthogonalEdgeStyle;rounded=0;orthogonalLoop=1;jettySize=auto;html=1;" edge="1" parent="1" source="cP44W9lzAS7AUE2EkKCi-13" target="cP44W9lzAS7AUE2EkKCi-15">
          <mxGeometry relative="1" as="geometry" />
        </mxCell>
        <mxCell id="cP44W9lzAS7AUE2EkKCi-13" value="Elasticsearch" style="rounded=1;whiteSpace=wrap;html=1;fillColor=#fff2cc;strokeColor=#d6b656;" vertex="1" parent="1">
          <mxGeometry x="380" y="140" width="120" height="60" as="geometry" />
        </mxCell>
        <mxCell id="cP44W9lzAS7AUE2EkKCi-15" value="Kibana" style="rounded=1;whiteSpace=wrap;html=1;fillColor=#f8cecc;strokeColor=#b85450;" vertex="1" parent="1">
          <mxGeometry x="530" y="140" width="120" height="60" as="geometry" />
        </mxCell>
        <mxCell id="cP44W9lzAS7AUE2EkKCi-31" style="rounded=0;orthogonalLoop=1;jettySize=auto;html=1;" edge="1" parent="1" source="cP44W9lzAS7AUE2EkKCi-19" target="cP44W9lzAS7AUE2EkKCi-23">
          <mxGeometry relative="1" as="geometry" />
        </mxCell>
        <mxCell id="cP44W9lzAS7AUE2EkKCi-19" value="Jaeger" style="rounded=1;whiteSpace=wrap;html=1;fillColor=#e1d5e7;strokeColor=#9673a6;" vertex="1" parent="1">
          <mxGeometry x="296" y="260" width="120" height="60" as="geometry" />
        </mxCell>
        <mxCell id="cP44W9lzAS7AUE2EkKCi-30" style="rounded=0;orthogonalLoop=1;jettySize=auto;html=1;" edge="1" parent="1" source="cP44W9lzAS7AUE2EkKCi-21" target="cP44W9lzAS7AUE2EkKCi-23">
          <mxGeometry relative="1" as="geometry" />
        </mxCell>
        <mxCell id="cP44W9lzAS7AUE2EkKCi-21" value="Prometheus" style="rounded=1;whiteSpace=wrap;html=1;fillColor=#d5e8d4;strokeColor=#82b366;" vertex="1" parent="1">
          <mxGeometry x="296" y="360" width="120" height="60" as="geometry" />
        </mxCell>
        <mxCell id="cP44W9lzAS7AUE2EkKCi-23" value="Grafana" style="rounded=1;whiteSpace=wrap;html=1;fillColor=#7DA37B;strokeColor=#82b366;" vertex="1" parent="1">
          <mxGeometry x="480" y="315" width="120" height="60" as="geometry" />
        </mxCell>
        <mxCell id="cP44W9lzAS7AUE2EkKCi-33" value="Logging" style="text;html=1;align=center;verticalAlign=middle;whiteSpace=wrap;rounded=0;" vertex="1" parent="1">
          <mxGeometry x="220" y="110" width="440" height="18" as="geometry" />
        </mxCell>
        <mxCell id="cP44W9lzAS7AUE2EkKCi-35" value="Monitoring" style="text;html=1;align=center;verticalAlign=middle;whiteSpace=wrap;rounded=0;" vertex="1" parent="1">
          <mxGeometry x="221" y="235" width="429" height="18" as="geometry" />
        </mxCell>
      </root>
    </mxGraphModel>
  </diagram>
</mxfile>
